<?xml version="1.0" encoding="UTF-8" standalone="no"?>
<!DOCTYPE svg PUBLIC "-//W3C//DTD SVG 1.1//EN" "http://www.w3.org/Graphics/SVG/1.1/DTD/svg11.dtd">
<svg width="100%" height="100%" viewBox="0 0 500 250" version="1.1" xmlns="http://www.w3.org/2000/svg" xmlns:xlink="http://www.w3.org/1999/xlink" xml:space="preserve" xmlns:serif="http://www.serif.com/" style="fill-rule:evenodd;clip-rule:evenodd;stroke-linejoin:round;stroke-miterlimit:2;">
    <g transform="matrix(1,0,0,1,-15.2006,20.0923)">
        <path d="M23.17,105.014C23.17,101.558 23.831,98.304 25.153,95.254C26.476,92.204 28.274,89.541 30.549,87.267C32.824,84.992 35.477,83.193 38.51,81.871C41.543,80.549 44.787,79.887 48.243,79.887C51.734,79.887 55.031,80.549 58.135,81.871C61.238,83.193 63.971,84.992 66.334,87.267C68.697,89.541 70.566,92.204 71.941,95.254C73.316,98.304 74.004,101.558 74.004,105.014L74.004,124.056C74.004,125.044 73.828,125.952 73.475,126.781C73.122,127.609 72.637,128.332 72.02,128.949C71.403,129.567 70.671,130.051 69.825,130.404C68.979,130.757 68.079,130.933 67.127,130.933C66.14,130.933 65.214,130.757 64.35,130.404C63.486,130.051 62.728,129.567 62.076,128.949C61.423,128.332 60.912,127.609 60.542,126.781C60.171,125.952 59.986,125.044 59.986,124.056L59.986,105.066C59.951,103.55 59.607,102.122 58.955,100.782C58.302,99.442 57.429,98.269 56.336,97.264C55.243,96.259 54,95.466 52.607,94.884C51.214,94.302 49.759,94.011 48.243,94.011C46.727,94.011 45.307,94.284 43.985,94.831C42.662,95.377 41.516,96.136 40.546,97.105C39.577,98.075 38.801,99.212 38.219,100.517C37.637,101.822 37.329,103.233 37.293,104.749L37.293,124.056C37.293,125.044 37.117,125.952 36.764,126.781C36.412,127.609 35.918,128.332 35.283,128.949C34.648,129.567 33.917,130.051 33.088,130.404C32.259,130.757 31.369,130.933 30.417,130.933C29.465,130.933 28.548,130.757 27.666,130.404C26.784,130.051 26.009,129.567 25.339,128.949C24.669,128.332 24.14,127.609 23.752,126.781C23.364,125.952 23.17,125.044 23.17,124.056L23.17,105.014Z" style="fill:white;fill-rule:nonzero;"/>
        <path d="M95.163,105.754C95.163,107.376 95.471,108.893 96.088,110.303C96.706,111.714 97.552,112.948 98.628,114.006C99.703,115.064 100.946,115.893 102.357,116.492C103.767,117.092 105.266,117.391 106.853,117.391C108.475,117.391 110,117.092 111.429,116.492C112.857,115.893 114.1,115.064 115.158,114.006C116.216,112.948 117.053,111.714 117.671,110.303C118.288,108.893 118.596,107.376 118.596,105.754C118.596,104.132 118.288,102.615 117.671,101.205C117.053,99.794 116.216,98.56 115.158,97.502C114.1,96.444 112.857,95.615 111.429,95.016C110,94.416 108.475,94.117 106.853,94.117C105.266,94.117 103.767,94.416 102.357,95.016C100.946,95.615 99.703,96.444 98.628,97.502C97.552,98.56 96.706,99.794 96.088,101.205C95.471,102.615 95.163,104.132 95.163,105.754ZM81.039,105.754C81.039,102.192 81.718,98.842 83.076,95.704C84.433,92.565 86.285,89.823 88.63,87.478C90.975,85.133 93.708,83.282 96.829,81.924C99.95,80.566 103.291,79.887 106.853,79.887C110.415,79.887 113.765,80.566 116.904,81.924C120.042,83.282 122.775,85.133 125.103,87.478C127.43,89.823 129.273,92.565 130.63,95.704C131.988,98.842 132.667,102.192 132.667,105.754C132.667,109.316 131.988,112.657 130.63,115.778C129.273,118.899 127.43,121.623 125.103,123.951C122.775,126.278 120.042,128.121 116.904,129.478C113.765,130.836 110.415,131.515 106.853,131.515C103.291,131.515 99.95,130.836 96.829,129.478C93.708,128.121 90.975,126.278 88.63,123.951C86.285,121.623 84.433,118.899 83.076,115.778C81.718,112.657 81.039,109.316 81.039,105.754Z" style="fill:white;fill-rule:nonzero;"/>
        <path d="M139.702,106.23C139.808,102.633 140.584,99.248 142.03,96.074C143.476,92.9 145.406,90.123 147.822,87.743C150.238,85.362 153.041,83.476 156.233,82.083C159.424,80.69 162.818,79.958 166.415,79.887L166.891,79.887C169.219,79.923 171.008,80.593 172.26,81.897C173.512,83.202 174.138,84.86 174.138,86.87C174.138,87.892 173.944,88.827 173.556,89.673C173.168,90.52 172.648,91.26 171.996,91.895C171.343,92.53 170.568,93.023 169.668,93.376C168.769,93.729 167.826,93.905 166.838,93.905C165.075,93.905 163.409,94.24 161.84,94.91C160.27,95.58 158.895,96.497 157.714,97.661C156.532,98.825 155.589,100.191 154.884,101.76C154.178,103.33 153.808,105.014 153.773,106.812L153.773,124.004C153.773,124.991 153.596,125.908 153.244,126.754C152.891,127.601 152.397,128.332 151.763,128.949C151.128,129.567 150.396,130.051 149.567,130.404C148.739,130.757 147.848,130.933 146.896,130.933C145.944,130.933 145.027,130.757 144.146,130.404C143.264,130.051 142.497,129.567 141.845,128.949C141.192,128.332 140.672,127.601 140.284,126.754C139.896,125.908 139.702,124.991 139.702,124.004L139.702,106.23Z" style="fill:white;fill-rule:nonzero;"/>
        <path d="M180.01,71.53C180.01,70.542 180.204,69.617 180.592,68.753C180.98,67.889 181.491,67.13 182.126,66.478C182.76,65.826 183.51,65.314 184.374,64.944C185.238,64.574 186.146,64.389 187.098,64.389C188.05,64.389 188.976,64.574 189.875,64.944C190.774,65.314 191.559,65.817 192.229,66.451C192.899,67.086 193.437,67.844 193.842,68.726C194.248,69.608 194.451,70.542 194.451,71.53L194.451,78.3L210.69,78.3C211.642,78.3 212.55,78.486 213.414,78.856C214.278,79.226 215.037,79.737 215.689,80.39C216.341,81.042 216.853,81.8 217.223,82.664C217.593,83.528 217.778,84.437 217.778,85.389C217.778,86.341 217.593,87.222 217.223,88.034C216.853,88.845 216.341,89.559 215.689,90.176C215.037,90.793 214.278,91.278 213.414,91.631C212.55,91.983 211.642,92.159 210.69,92.159L194.451,92.159L194.451,105.86C194.451,107.482 194.742,108.998 195.324,110.409C195.905,111.82 196.708,113.054 197.73,114.112C198.753,115.17 199.952,115.998 201.327,116.598C202.703,117.197 204.201,117.497 205.824,117.497C207.269,117.497 208.61,117.303 209.844,116.915C211.078,116.527 212.171,115.893 213.123,115.011C213.899,114.306 214.719,113.733 215.583,113.292C216.447,112.851 217.408,112.631 218.466,112.631C219.242,112.631 220.018,112.798 220.793,113.133C221.569,113.468 222.248,113.935 222.83,114.535C223.412,115.134 223.888,115.831 224.258,116.624C224.629,117.418 224.814,118.273 224.814,119.19C224.814,120.283 224.593,121.359 224.152,122.417C223.712,123.475 223.086,124.409 222.275,125.22C220.088,127.336 217.602,128.923 214.816,129.981C212.03,131.039 209.033,131.568 205.824,131.568C202.262,131.568 198.912,130.889 195.773,129.531C192.635,128.174 189.902,126.331 187.574,124.004C185.247,121.676 183.404,118.943 182.046,115.805C180.689,112.666 180.01,109.316 180.01,105.754L180.01,71.53Z" style="fill:white;fill-rule:nonzero;"/>
        <path d="M267.66,105.014C267.66,103.462 267.422,101.998 266.946,100.623C266.47,99.248 265.791,98.058 264.91,97.052C264.028,96.047 262.961,95.254 261.709,94.672C260.458,94.09 259.056,93.799 257.504,93.799C255.952,93.799 254.374,94.064 252.77,94.593C251.165,95.122 249.702,95.862 248.379,96.814C247.057,97.767 245.973,98.895 245.126,100.2C244.28,101.505 243.857,102.915 243.857,104.432L243.857,123.951C243.857,124.903 243.68,125.802 243.328,126.648C242.975,127.495 242.481,128.235 241.847,128.87C241.212,129.505 240.471,130.007 239.625,130.378C238.779,130.748 237.862,130.933 236.874,130.933C235.887,130.933 234.961,130.748 234.097,130.378C233.233,130.007 232.484,129.505 231.849,128.87C231.214,128.235 230.712,127.495 230.341,126.648C229.971,125.802 229.786,124.903 229.786,123.951L229.786,68.144C229.786,67.157 229.971,66.231 230.341,65.367C230.712,64.503 231.223,63.754 231.875,63.119C232.528,62.484 233.286,61.982 234.15,61.611C235.014,61.241 235.922,61.056 236.874,61.056C237.826,61.056 238.726,61.241 239.572,61.611C240.418,61.982 241.159,62.484 241.794,63.119C242.428,63.754 242.931,64.503 243.301,65.367C243.671,66.231 243.857,67.157 243.857,68.144L243.857,85.494C245.796,83.766 247.921,82.4 250.231,81.395C252.541,80.39 254.965,79.887 257.504,79.887C260.925,79.887 264.116,80.549 267.078,81.871C270.041,83.193 272.606,84.992 274.775,87.267C276.944,89.541 278.645,92.204 279.88,95.254C281.114,98.304 281.731,101.558 281.731,105.014L281.731,124.162C281.731,125.15 281.546,126.058 281.176,126.886C280.805,127.715 280.294,128.438 279.642,129.055C278.989,129.672 278.24,130.157 277.393,130.51C276.547,130.863 275.648,131.039 274.696,131.039C273.744,131.039 272.835,130.863 271.971,130.51C271.107,130.157 270.358,129.672 269.723,129.055C269.089,128.438 268.586,127.715 268.216,126.886C267.845,126.058 267.66,125.15 267.66,124.162L267.66,105.014Z" style="fill:white;fill-rule:nonzero;"/>
        <path d="M315.744,131.515C312.076,131.515 308.638,130.863 305.429,129.558C302.22,128.253 299.425,126.454 297.045,124.162C294.664,121.87 292.778,119.163 291.385,116.043C289.992,112.922 289.295,109.545 289.295,105.913C289.295,102.28 289.992,98.877 291.385,95.704C292.778,92.53 294.673,89.77 297.071,87.425C299.469,85.08 302.273,83.238 305.482,81.897C308.691,80.557 312.112,79.887 315.744,79.887C319.235,79.887 322.515,80.469 325.583,81.633C328.651,82.797 331.313,84.542 333.57,86.87C334.417,87.751 335.051,88.704 335.474,89.726C335.898,90.749 336.109,91.754 336.109,92.741C336.109,93.835 335.862,94.804 335.369,95.651C334.875,96.497 334.267,97.22 333.544,97.819C332.821,98.419 332.054,98.877 331.243,99.195C330.432,99.512 329.709,99.671 329.074,99.671C327.804,99.671 326.658,99.362 325.636,98.745C324.613,98.128 323.626,97.449 322.673,96.709C321.404,95.757 320.178,95.104 318.997,94.751C317.816,94.399 316.608,94.222 315.374,94.222C313.716,94.222 312.173,94.54 310.745,95.175C309.317,95.809 308.083,96.656 307.042,97.714C306.002,98.772 305.191,99.997 304.609,101.39C304.027,102.783 303.736,104.238 303.736,105.754C303.736,107.094 304.001,108.434 304.53,109.774C305.059,111.114 305.799,112.331 306.751,113.424C307.703,114.517 308.832,115.417 310.137,116.122C311.442,116.827 312.87,117.197 314.421,117.233C314.598,117.233 314.765,117.242 314.924,117.259C315.083,117.277 315.25,117.286 315.426,117.286C316.661,117.286 317.869,117.109 319.05,116.757C320.231,116.404 321.439,115.734 322.673,114.747C323.59,114.006 324.56,113.336 325.583,112.736C326.605,112.137 327.734,111.837 328.968,111.837C329.638,111.837 330.379,111.987 331.19,112.287C332.001,112.587 332.768,113.036 333.491,113.636C334.214,114.235 334.822,114.967 335.316,115.831C335.809,116.695 336.056,117.674 336.056,118.767C336.056,119.754 335.854,120.75 335.448,121.755C335.042,122.76 334.417,123.686 333.57,124.533C331.313,126.86 328.633,128.606 325.53,129.769C322.427,130.933 319.165,131.515 315.744,131.515Z" style="fill:white;fill-rule:nonzero;"/>
        <path d="M343.197,106.23C343.303,102.633 344.079,99.248 345.525,96.074C346.971,92.9 348.902,90.123 351.317,87.743C353.733,85.362 356.536,83.476 359.728,82.083C362.919,80.69 366.314,79.958 369.911,79.887L370.387,79.887C372.714,79.923 374.504,80.593 375.756,81.897C377.008,83.202 377.633,84.86 377.633,86.87C377.633,87.892 377.44,88.827 377.052,89.673C376.664,90.52 376.144,91.26 375.491,91.895C374.839,92.53 374.063,93.023 373.164,93.376C372.264,93.729 371.321,93.905 370.334,93.905C368.57,93.905 366.904,94.24 365.335,94.91C363.766,95.58 362.39,96.497 361.209,97.661C360.028,98.825 359.084,100.191 358.379,101.76C357.674,103.33 357.303,105.014 357.268,106.812L357.268,124.004C357.268,124.991 357.092,125.908 356.739,126.754C356.386,127.601 355.893,128.332 355.258,128.949C354.623,129.567 353.891,130.051 353.063,130.404C352.234,130.757 351.344,130.933 350.391,130.933C349.439,130.933 348.522,130.757 347.641,130.404C346.759,130.051 345.992,129.567 345.34,128.949C344.687,128.332 344.167,127.601 343.779,126.754C343.391,125.908 343.197,124.991 343.197,124.004L343.197,106.23Z" style="fill:white;fill-rule:nonzero;"/>
        <path d="M383.77,68.091C383.77,67.033 383.972,66.055 384.378,65.156C384.783,64.256 385.33,63.463 386.018,62.775C386.705,62.087 387.508,61.55 388.425,61.162C389.341,60.774 390.311,60.58 391.334,60.58C392.357,60.58 393.326,60.774 394.243,61.162C395.16,61.55 395.962,62.087 396.65,62.775C397.338,63.463 397.884,64.256 398.29,65.156C398.695,66.055 398.898,67.033 398.898,68.091C398.898,69.114 398.695,70.084 398.29,71.001C397.884,71.918 397.338,72.72 396.65,73.407C395.962,74.095 395.16,74.633 394.243,75.021C393.326,75.409 392.357,75.603 391.334,75.603C390.311,75.603 389.341,75.409 388.425,75.021C387.508,74.633 386.705,74.095 386.018,73.407C385.33,72.72 384.783,71.918 384.378,71.001C383.972,70.084 383.77,69.114 383.77,68.091ZM384.193,86.87C384.193,85.918 384.387,85.018 384.775,84.172C385.163,83.326 385.683,82.585 386.335,81.95C386.987,81.316 387.754,80.813 388.636,80.443C389.518,80.073 390.452,79.887 391.44,79.887C392.392,79.887 393.291,80.073 394.137,80.443C394.984,80.813 395.715,81.316 396.333,81.95C396.95,82.585 397.435,83.326 397.787,84.172C398.14,85.018 398.316,85.918 398.316,86.87L398.316,124.533C398.316,125.485 398.131,126.384 397.761,127.23C397.391,128.077 396.888,128.817 396.253,129.452C395.619,130.087 394.878,130.589 394.032,130.96C393.185,131.33 392.286,131.515 391.334,131.515C390.382,131.515 389.474,131.33 388.61,130.96C387.746,130.589 386.987,130.087 386.335,129.452C385.683,128.817 385.163,128.077 384.775,127.23C384.387,126.384 384.193,125.485 384.193,124.533L384.193,86.87Z" style="fill:white;fill-rule:nonzero;"/>
        <path d="M431.959,116.862C432.276,116.862 432.611,116.827 432.964,116.757C433.317,116.686 433.634,116.563 433.916,116.386C434.198,116.21 434.436,115.963 434.63,115.646C434.824,115.328 434.921,114.923 434.921,114.429C434.921,113.9 434.824,113.486 434.63,113.186C434.436,112.886 434.181,112.666 433.863,112.525C433.546,112.384 433.193,112.296 432.805,112.26C432.417,112.225 432.047,112.208 431.694,112.208L423.284,112.208C420.992,112.208 418.876,111.749 416.936,110.832C414.996,109.915 413.33,108.681 411.937,107.129C410.544,105.578 409.451,103.797 408.658,101.787C407.864,99.777 407.467,97.678 407.467,95.492C407.467,93.376 407.882,91.366 408.711,89.462C409.539,87.557 410.668,85.9 412.096,84.489C413.524,83.079 415.199,81.959 417.121,81.13C419.043,80.302 421.097,79.887 423.284,79.887L439.682,79.887C440.634,79.887 441.533,80.037 442.38,80.337C443.226,80.637 443.966,81.078 444.601,81.659C445.236,82.241 445.739,82.955 446.109,83.802C446.479,84.648 446.664,85.618 446.664,86.711C446.664,87.734 446.488,88.686 446.135,89.568C445.783,90.449 445.315,91.216 444.734,91.869C444.152,92.521 443.455,93.032 442.644,93.403C441.833,93.773 440.987,93.958 440.105,93.958L423.548,93.958C423.054,93.958 422.596,94.143 422.173,94.513C421.75,94.884 421.538,95.386 421.538,96.021C421.538,96.832 421.759,97.379 422.199,97.661C422.64,97.943 423.054,98.084 423.442,98.084L433.07,98.084C435.397,98.084 437.539,98.542 439.497,99.459C441.454,100.376 443.138,101.602 444.548,103.136C445.959,104.67 447.052,106.442 447.828,108.452C448.604,110.462 448.992,112.56 448.992,114.747C448.992,116.933 448.613,118.987 447.854,120.909C447.096,122.831 446.038,124.524 444.681,125.987C443.323,127.451 441.692,128.623 439.788,129.505C437.883,130.386 435.803,130.863 433.546,130.933L413.022,130.933C412.07,130.933 411.206,130.757 410.43,130.404C409.654,130.051 408.975,129.558 408.393,128.923C407.811,128.288 407.362,127.53 407.044,126.648C406.727,125.767 406.568,124.797 406.568,123.739C406.568,121.623 407.168,119.948 408.367,118.714C409.566,117.48 411.117,116.862 413.022,116.862L431.959,116.862Z" style="fill:white;fill-rule:nonzero;"/>
        <path d="M455.604,105.331C455.639,101.84 456.353,98.542 457.746,95.439C459.139,92.336 461.008,89.638 463.353,87.346C465.698,85.054 468.431,83.238 471.552,81.897C474.673,80.557 477.979,79.887 481.471,79.887C484.997,79.887 488.33,80.566 491.468,81.924C494.607,83.282 497.34,85.133 499.667,87.478C501.995,89.823 503.837,92.565 505.195,95.704C506.553,98.842 507.231,102.192 507.231,105.754C507.231,109.316 506.553,112.657 505.195,115.778C503.837,118.899 501.995,121.623 499.667,123.951C497.34,126.278 494.607,128.121 491.468,129.478C488.33,130.836 484.997,131.515 481.471,131.515C479.355,131.515 477.309,131.268 475.334,130.774C473.36,130.281 471.473,129.575 469.675,128.659L469.675,141.883C469.675,142.905 469.507,143.866 469.172,144.766C468.837,145.665 468.37,146.45 467.77,147.12C467.171,147.79 466.448,148.31 465.601,148.68C464.755,149.05 463.821,149.236 462.798,149.236C461.81,149.236 460.885,149.05 460.021,148.68C459.157,148.31 458.399,147.79 457.746,147.12C457.094,146.45 456.574,145.665 456.186,144.766C455.798,143.866 455.604,142.905 455.604,141.883L455.604,105.331ZM469.727,105.754C469.727,107.376 470.036,108.893 470.653,110.303C471.27,111.714 472.117,112.948 473.192,114.006C474.268,115.064 475.52,115.893 476.948,116.492C478.376,117.092 479.884,117.391 481.471,117.391C483.093,117.391 484.609,117.092 486.02,116.492C487.43,115.893 488.665,115.064 489.723,114.006C490.78,112.948 491.618,111.714 492.235,110.303C492.852,108.893 493.161,107.376 493.161,105.754C493.161,104.132 492.852,102.615 492.235,101.205C491.618,99.794 490.78,98.56 489.723,97.502C488.665,96.444 487.43,95.615 486.02,95.016C484.609,94.416 483.093,94.117 481.471,94.117C479.884,94.117 478.376,94.416 476.948,95.016C475.52,95.615 474.268,96.444 473.192,97.502C472.117,98.56 471.27,99.794 470.653,101.205C470.036,102.615 469.727,104.132 469.727,105.754Z" style="fill:white;fill-rule:nonzero;"/>
    </g>
</svg>
